<mxfile host="65bd71144e">
    <diagram id="fwTV8ZU7ULfyuPrwWASA" name="App Flow Diagram">
        <mxGraphModel dx="1302" dy="586" grid="0" gridSize="10" guides="0" tooltips="1" connect="1" arrows="1" fold="1" page="0" pageScale="1" pageWidth="850" pageHeight="1100" math="0" shadow="0">
            <root>
                <mxCell id="0"/>
                <mxCell id="1" parent="0"/>
                <mxCell id="14" style="edgeStyle=none;html=1;exitX=0.5;exitY=1;exitDx=0;exitDy=0;entryX=0.5;entryY=0;entryDx=0;entryDy=0;fontFamily=Comic Sans MS;fontSize=13;fillColor=#1ba1e2;strokeColor=#006EAF;strokeWidth=2;" parent="1" source="2" target="12" edge="1">
                    <mxGeometry relative="1" as="geometry"/>
                </mxCell>
                <mxCell id="18" style="edgeStyle=none;html=1;exitX=1;exitY=0.5;exitDx=0;exitDy=0;entryX=0.5;entryY=0;entryDx=0;entryDy=0;fontFamily=Comic Sans MS;fontSize=13;fillColor=#1ba1e2;strokeColor=#006EAF;strokeWidth=2;" parent="1" source="2" target="16" edge="1">
                    <mxGeometry relative="1" as="geometry">
                        <Array as="points">
                            <mxPoint x="660" y="60"/>
                        </Array>
                    </mxGeometry>
                </mxCell>
                <mxCell id="2" value="&lt;font color=&quot;#f6f4f4&quot;&gt;&lt;b&gt;Uploaded Face Image&lt;/b&gt;&lt;/font&gt;" style="rounded=1;whiteSpace=wrap;html=1;fontFamily=Comic Sans MS;fontSize=13;fillColor=#fa6800;fontColor=#000000;strokeColor=#C73500;gradientColor=none;sketch=1;curveFitting=1;jiggle=2;" parent="1" vertex="1">
                    <mxGeometry x="400" y="30" width="120" height="60" as="geometry"/>
                </mxCell>
                <mxCell id="5" value="" style="edgeStyle=none;html=1;fontFamily=Comic Sans MS;fontSize=13;fillColor=#1ba1e2;strokeColor=#006EAF;strokeWidth=2;" parent="1" source="3" target="4" edge="1">
                    <mxGeometry relative="1" as="geometry"/>
                </mxCell>
                <mxCell id="7" value="" style="edgeStyle=none;html=1;exitX=1.007;exitY=0.366;exitDx=0;exitDy=0;exitPerimeter=0;fontFamily=Comic Sans MS;fontSize=13;fillColor=#1ba1e2;strokeColor=#006EAF;strokeWidth=2;shadow=0;" parent="1" source="3" target="6" edge="1">
                    <mxGeometry relative="1" as="geometry">
                        <Array as="points">
                            <mxPoint x="260" y="52"/>
                        </Array>
                    </mxGeometry>
                </mxCell>
                <mxCell id="3" value="&lt;b&gt;&lt;font color=&quot;#f0e0e0&quot;&gt;ID Card Image&lt;/font&gt;&lt;/b&gt;" style="rounded=1;whiteSpace=wrap;html=1;fontFamily=Comic Sans MS;fontSize=13;fillColor=#fa6800;fontColor=#000000;strokeColor=#C73500;sketch=1;curveFitting=1;jiggle=2;" parent="1" vertex="1">
                    <mxGeometry x="80" y="30" width="120" height="60" as="geometry"/>
                </mxCell>
                <mxCell id="9" value="" style="edgeStyle=none;html=1;fontFamily=Comic Sans MS;fontSize=13;fillColor=#1ba1e2;strokeColor=#006EAF;strokeWidth=2;" parent="1" source="4" target="8" edge="1">
                    <mxGeometry relative="1" as="geometry"/>
                </mxCell>
                <mxCell id="4" value="Image Preprocessor" style="whiteSpace=wrap;html=1;rounded=1;fontFamily=Comic Sans MS;fontSize=13;fillColor=#76608a;fontColor=#ffffff;strokeColor=#432D57;sketch=1;curveFitting=1;jiggle=2;" parent="1" vertex="1">
                    <mxGeometry x="80" y="240" width="120" height="60" as="geometry"/>
                </mxCell>
                <mxCell id="13" value="" style="edgeStyle=none;html=1;fontFamily=Comic Sans MS;fontSize=13;fillColor=#1ba1e2;strokeColor=#006EAF;strokeWidth=2;" parent="1" source="6" target="12" edge="1">
                    <mxGeometry relative="1" as="geometry"/>
                </mxCell>
                <mxCell id="6" value="Extract Face" style="whiteSpace=wrap;html=1;rounded=1;fontFamily=Comic Sans MS;fontSize=13;fillColor=#76608a;fontColor=#ffffff;strokeColor=#432D57;sketch=1;curveFitting=1;jiggle=2;" parent="1" vertex="1">
                    <mxGeometry x="200" y="130" width="120" height="60" as="geometry"/>
                </mxCell>
                <mxCell id="11" value="" style="edgeStyle=none;html=1;fontFamily=Comic Sans MS;fontSize=13;fillColor=#1ba1e2;strokeColor=#006EAF;strokeWidth=2;" parent="1" source="8" target="10" edge="1">
                    <mxGeometry relative="1" as="geometry"/>
                </mxCell>
                <mxCell id="8" value="OCR Engine" style="whiteSpace=wrap;html=1;rounded=1;fontFamily=Comic Sans MS;fontSize=13;fillColor=#76608a;fontColor=#ffffff;strokeColor=#432D57;sketch=1;curveFitting=1;jiggle=2;" parent="1" vertex="1">
                    <mxGeometry x="280" y="240" width="120" height="60" as="geometry"/>
                </mxCell>
                <mxCell id="17" value="" style="edgeStyle=none;html=1;exitX=1.025;exitY=0.404;exitDx=0;exitDy=0;exitPerimeter=0;fontFamily=Comic Sans MS;fontSize=13;fillColor=#1ba1e2;strokeColor=#006EAF;strokeWidth=2;" parent="1" source="10" target="16" edge="1">
                    <mxGeometry relative="1" as="geometry">
                        <Array as="points">
                            <mxPoint x="670" y="264"/>
                        </Array>
                    </mxGeometry>
                </mxCell>
                <mxCell id="10" value="Postprocessor" style="whiteSpace=wrap;html=1;rounded=1;fontFamily=Comic Sans MS;fontSize=13;fillColor=#76608a;fontColor=#ffffff;strokeColor=#432D57;sketch=1;curveFitting=1;jiggle=2;" parent="1" vertex="1">
                    <mxGeometry x="480" y="240" width="120" height="60" as="geometry"/>
                </mxCell>
                <mxCell id="12" value="Face Comparison" style="whiteSpace=wrap;html=1;rounded=1;fontFamily=Comic Sans MS;fontSize=13;fillColor=#76608a;fontColor=#ffffff;strokeColor=#432D57;sketch=1;curveFitting=1;jiggle=2;" parent="1" vertex="1">
                    <mxGeometry x="400" y="130" width="120" height="60" as="geometry"/>
                </mxCell>
                <mxCell id="20" value="" style="edgeStyle=none;html=1;entryX=0;entryY=0.5;entryDx=0;entryDy=0;fontFamily=Comic Sans MS;fontSize=13;fillColor=#1ba1e2;strokeColor=#006EAF;strokeWidth=2;" parent="1" source="16" target="21" edge="1">
                    <mxGeometry relative="1" as="geometry">
                        <mxPoint x="790" y="120" as="targetPoint"/>
                    </mxGeometry>
                </mxCell>
                <mxCell id="16" value="&lt;font color=&quot;#eee2e2&quot;&gt;&lt;b&gt;User Already Exists?&lt;/b&gt;&lt;/font&gt;" style="rhombus;whiteSpace=wrap;html=1;rounded=1;fontFamily=Comic Sans MS;fontSize=13;fillColor=#f0a30a;fontColor=#000000;strokeColor=#BD7000;gradientColor=none;shadow=0;sketch=1;curveFitting=1;jiggle=2;" parent="1" vertex="1">
                    <mxGeometry x="620" y="70" width="100" height="100" as="geometry"/>
                </mxCell>
                <mxCell id="21" value="Register User" style="ellipse;whiteSpace=wrap;html=1;fontFamily=Comic Sans MS;fontSize=13;fillColor=#60a917;fontColor=#ffffff;strokeColor=#2D7600;sketch=1;curveFitting=1;jiggle=2;" parent="1" vertex="1">
                    <mxGeometry x="820" y="80" width="120" height="80" as="geometry"/>
                </mxCell>
                <mxCell id="24" value="" style="endArrow=classic;html=1;fontFamily=Comic Sans MS;fontSize=13;fillColor=#1ba1e2;strokeColor=#006EAF;strokeWidth=2;" parent="1" edge="1">
                    <mxGeometry width="50" height="50" relative="1" as="geometry">
                        <mxPoint x="760" y="120" as="sourcePoint"/>
                        <mxPoint x="760" y="200" as="targetPoint"/>
                    </mxGeometry>
                </mxCell>
                <mxCell id="25" value="NO" style="text;html=1;align=center;verticalAlign=middle;resizable=0;points=[];autosize=1;strokeColor=none;fillColor=none;fontFamily=Comic Sans MS;fontSize=13;" parent="1" vertex="1">
                    <mxGeometry x="775" y="90" width="40" height="30" as="geometry"/>
                </mxCell>
                <mxCell id="26" value="YES" style="text;html=1;align=center;verticalAlign=middle;resizable=0;points=[];autosize=1;strokeColor=none;fillColor=none;fontFamily=Comic Sans MS;fontSize=13;strokeWidth=2;" parent="1" vertex="1">
                    <mxGeometry x="765" y="140" width="50" height="30" as="geometry"/>
                </mxCell>
                <mxCell id="28" value="User Already Exists" style="ellipse;whiteSpace=wrap;html=1;fontFamily=Comic Sans MS;fontSize=13;fillColor=#e51400;fontColor=#ffffff;strokeColor=#B20000;sketch=1;curveFitting=1;jiggle=2;" parent="1" vertex="1">
                    <mxGeometry x="700" y="200" width="120" height="80" as="geometry"/>
                </mxCell>
            </root>
        </mxGraphModel>
    </diagram>
</mxfile>